<?xml version="1.0" standalone="no"?>
<!DOCTYPE svg PUBLIC "-//W3C//DTD SVG 20010904//EN"
 "http://www.w3.org/TR/2001/REC-SVG-20010904/DTD/svg10.dtd">
<svg version="1.0" xmlns="http://www.w3.org/2000/svg"
 width="388.000000pt" height="77.000000pt" viewBox="0 0 388.000000 77.000000"
 preserveAspectRatio="xMidYMid meet">
<metadata>
Created by potrace 1.16, written by Peter Selinger 2001-2019
</metadata>
<g transform="translate(0.000000,77.000000) scale(0.100000,-0.100000)"
fill="#000000" stroke="none">
<path d="M420 330 l0 -180 30 0 30 0 0 180 0 180 -30 0 -30 0 0 -180z"/>
<path d="M128 319 l-57 -170 31 3 c27 3 33 9 46 46 l14 42 58 0 57 0 13 -45
c12 -42 15 -45 47 -45 24 0 34 4 31 13 -3 6 -29 83 -57 170 l-53 157 -37 0
-36 0 -57 -171z"/>
<path d="M1590 320 l0 -172 88 4 c102 5 145 24 177 78 28 48 27 149 -1 187
-42 56 -68 67 -169 71 l-95 4 0 -172z m183 99 c35 -27 51 -87 37 -138 -15 -57
-50 -81 -116 -81 l-54 0 0 120 0 120 54 0 c39 0 60 -6 79 -21z"/>
<path d="M2230 320 l0 -170 115 0 115 0 0 25 c0 25 -1 25 -85 25 l-85 0 0 145
0 145 -30 0 -30 0 0 -170z"/>
<path d="M561 308 c55 -148 58 -158 52 -173 -8 -22 -40 -37 -63 -30 -16 5 -20
2 -20 -19 0 -22 5 -26 29 -26 77 0 89 16 157 206 l44 124 -29 0 c-27 0 -29 -4
-56 -92 -15 -51 -29 -88 -31 -83 -2 6 -14 46 -27 90 -22 77 -24 80 -55 83
l-32 3 31 -83z"/>
<path d="M828 370 c-33 -25 -37 -69 -10 -92 9 -9 40 -22 67 -30 38 -10 50 -18
50 -33 0 -25 -46 -33 -78 -13 -22 14 -67 13 -67 -1 0 -20 44 -44 88 -49 132
-12 169 107 43 138 -52 12 -77 31 -66 50 9 15 56 12 75 -5 15 -14 60 -11 60 5
0 19 -45 43 -87 47 -39 4 -53 1 -75 -17z"/>
<path d="M1078 370 c-33 -25 -37 -69 -10 -92 9 -9 40 -22 67 -30 38 -10 50
-18 50 -33 0 -25 -46 -33 -78 -13 -22 14 -67 13 -67 -1 0 -20 44 -44 88 -49
132 -12 169 107 43 138 -52 12 -77 31 -66 50 9 15 56 12 75 -5 15 -14 60 -11
60 5 0 19 -45 43 -87 47 -39 4 -53 1 -75 -17z"/>
<path d="M1354 380 c-12 -5 -29 -19 -38 -32 -16 -22 -15 -23 11 -30 20 -6 30
-3 40 12 22 31 83 24 83 -9 0 -12 -16 -19 -62 -28 -94 -18 -125 -67 -73 -118
27 -28 68 -32 111 -13 22 10 28 10 32 0 2 -6 15 -12 28 -12 23 0 24 2 24 83 0
45 -3 92 -6 105 -12 42 -93 65 -150 42z"/>
<path d="M1994 381 c-68 -30 -87 -135 -35 -193 26 -30 35 -33 84 -33 45 0 60
5 81 24 14 14 26 28 26 32 0 16 -46 13 -62 -3 -23 -23 -70 -23 -91 0 -32 35
-21 42 69 42 l87 0 -6 42 c-7 53 -42 88 -93 94 -21 2 -49 0 -60 -5z"/>
<path d="M2564 381 c-68 -30 -87 -135 -35 -193 26 -29 35 -33 81 -33 46 0 55
4 81 33 24 26 29 41 29 82 0 40 -5 56 -27 80 -30 34 -89 48 -129 31z m86 -51
c13 -13 20 -33 20 -60 0 -69 -57 -103 -100 -60 -43 43 -15 140 40 140 11 0 29
-9 40 -20z"/>
<path d="M2790 291 c0 -108 7 -125 58 -138 18 -4 38 0 64 15 37 20 38 20 38 1
0 -14 7 -19 25 -19 l25 0 0 120 0 120 -25 0 c-24 0 -25 -2 -25 -75 0 -83 -18
-115 -65 -115 -34 0 -45 27 -45 114 0 74 -1 76 -25 76 -25 0 -25 0 -25 -99z"/>
<path d="M3241 378 c-36 -19 -47 -42 -35 -75 7 -22 21 -32 64 -46 67 -22 93
-43 70 -57 -22 -14 -76 -12 -89 4 -15 18 -53 8 -49 -13 2 -9 21 -22 44 -30 97
-34 196 37 135 98 -10 10 -44 26 -76 35 -43 13 -56 21 -53 34 4 22 60 28 76 9
12 -14 62 -12 62 3 0 35 -105 62 -149 38z"/>
<path d="M3514 381 c-68 -30 -87 -135 -35 -193 26 -30 35 -33 84 -33 45 0 60
5 81 24 14 14 26 28 26 32 0 16 -46 13 -62 -3 -23 -23 -70 -23 -91 0 -32 35
-21 42 69 42 l87 0 -6 42 c-7 53 -42 88 -93 94 -21 2 -49 0 -60 -5z"/>
</g>
</svg>
